<?xml version="1.0" encoding="UTF-8"?>
<svg width="45px" height="45px" viewBox="0 0 45 45" version="1.1" xmlns="http://www.w3.org/2000/svg" xmlns:xlink="http://www.w3.org/1999/xlink">
    <title>social-footer-facebook</title>
    <defs>
        <linearGradient x1="50%" y1="97.0782153%" x2="50%" y2="0%" id="linearGradient-1">
            <stop stop-color="#0062E0" offset="0%"></stop>
            <stop stop-color="#19AFFF" offset="100%"></stop>
        </linearGradient>
    </defs>
    <g id="Page-1" stroke="none" stroke-width="1" fill="none" fill-rule="evenodd">
        <g id="social-footer-facebook" fill-rule="nonzero">
            <path d="M18.75,44.75 C8.125,42.875 0,33.625 0,22.5 C0,10.125 10.125,0 22.5,0 C34.875,0 45,10.125 45,22.5 C45,33.625 36.875,42.875 26.25,44.75 L25,43.75 L20,43.75 L18.75,44.75 Z" id="Path" fill="url(#linearGradient-1)"></path>
            <path d="M31.25,28.75 L32.25,22.5 L26.25,22.5 L26.25,18.125 C26.25,16.375 26.875,15 29.625,15 L32.5,15 L32.5,9.25 C30.875,9 29.125,8.75 27.5,8.75 C22.375,8.75 18.75,11.875 18.75,17.5 L18.75,22.5 L13.125,22.5 L13.125,28.75 L18.75,28.75 L18.75,44.625 C20,44.875 21.25,45 22.5,45 C23.75,45 25,44.875 26.25,44.625 L26.25,28.75 L31.25,28.75 Z" id="Path" fill="#FFFFFF"></path>
        </g>
    </g>
</svg>