<?xml version="1.0" encoding="UTF-8"?>
<svg width="45px" height="45px" viewBox="0 0 45 45" version="1.1" xmlns="http://www.w3.org/2000/svg" xmlns:xlink="http://www.w3.org/1999/xlink">
    <title>social-footer-instagram</title>
    <defs>
        <linearGradient x1="6.71416922%" y1="93.4850191%" x2="93.6081727%" y2="6.61873642%" id="linearGradient-1">
            <stop stop-color="#FFDD55" offset="0%"></stop>
            <stop stop-color="#FF543E" offset="50%"></stop>
            <stop stop-color="#C837AB" offset="100%"></stop>
        </linearGradient>
    </defs>
    <g id="Page-1" stroke="none" stroke-width="1" fill="none" fill-rule="evenodd">
        <g id="social-footer-instagram" fill-rule="nonzero">
            <circle id="Oval-Copy-2" fill="url(#linearGradient-1)" cx="22.5" cy="22.5" r="22.5"></circle>
            <path d="M22.5003353,9.0130135 C16.9707575,9.0130135 11.7198668,8.52151239 9.71423369,13.6647748 C8.88578689,15.7890335 9.00609443,18.5478308 9.00609443,22.4980998 C9.00609443,25.9644761 8.89492418,29.2223829 9.71423369,31.3299031 C11.7152982,36.4762089 17.0088296,35.9831861 22.4972896,35.9831861 C27.7923438,35.9831861 33.2518691,36.5340326 35.2818683,31.3299031 C36.111838,29.184341 35.9900076,26.4666289 35.9900076,22.4980998 C35.9900076,17.23006 36.2808777,13.8291158 33.723962,11.2757446 C31.1350657,8.68889667 27.6339643,9.0130135 22.4942438,9.0130135 L22.5003353,9.0130135 Z M21.2911685,11.4431289 C32.8254627,11.4248688 34.2935191,10.1436182 33.4833469,27.9426539 C33.1955225,34.2378246 28.3984501,33.546984 22.5018582,33.546984 C11.7503244,33.546984 11.4411798,33.2396056 11.4411798,22.4920131 C11.4411798,11.6196433 12.2939926,11.4492156 21.2911685,11.4400856 L21.2911685,11.4431289 Z M29.7035584,13.6815133 C28.8096277,13.6815133 28.0847368,14.4058307 28.0847368,15.2990541 C28.0847368,16.1922775 28.8096277,16.9165949 29.7035584,16.9165949 C30.597489,16.9165949 31.32238,16.1922775 31.32238,15.2990541 C31.32238,14.4058307 30.597489,13.6815133 29.7035584,13.6815133 L29.7035584,13.6815133 Z M22.5003353,15.5729556 C18.6733375,15.5729556 15.5712307,18.6741298 15.5712307,22.4980998 C15.5712307,26.3220698 18.6733375,29.4217223 22.5003353,29.4217223 C26.3273331,29.4217223 29.4279171,26.3220698 29.4279171,22.4980998 C29.4279171,18.6741298 26.3273331,15.5729556 22.5003353,15.5729556 Z M22.5003353,18.003071 C28.4471823,18.003071 28.4547967,26.9931286 22.5003353,26.9931286 C16.5550113,26.9931286 16.545874,18.003071 22.5003353,18.003071 Z" id="Shape" fill="#FFFFFF"></path>
        </g>
    </g>
</svg>