<?xml version="1.0" encoding="UTF-8"?>
<svg width="45px" height="45px" viewBox="0 0 45 45" version="1.1" xmlns="http://www.w3.org/2000/svg" xmlns:xlink="http://www.w3.org/1999/xlink">
    <title>social-footer-tiktok</title>
    <g id="Page-1" stroke="none" stroke-width="1" fill="none" fill-rule="evenodd">
        <g id="social-footer-tiktok">
            <circle id="Oval" fill="#000000" cx="22.5" cy="22.5" r="22.5"></circle>
            <g id="tik-tok" transform="translate(10.000000, 7.000000)" fill-rule="nonzero">
                <g id="Group" transform="translate(3.425739, 1.335457)" fill="#F00044">
                    <path d="M5.46376301,14.0164973 C3.10639024,14.0164973 1.20191174,15.9209758 1.23674976,18.2551232 C1.25997511,19.7531581 2.08447494,21.0537776 3.29799935,21.7795697 C2.88574943,21.146679 2.64188329,20.3976615 2.63027061,19.5905807 C2.59543259,17.2564332 4.49991109,15.3519547 6.85728387,15.3519547 C7.32179082,15.3519547 7.76887876,15.4274371 8.18693502,15.5609829 L8.18693502,10.8868817 C7.75145975,10.823012 7.30437181,10.7881739 6.85728387,10.7881739 C6.83405852,10.7881739 6.81663951,10.7881739 6.79341416,10.7881739 L6.79341416,14.2255254 C6.37535791,14.0919796 5.92826997,14.0164973 5.46376301,14.0164973 L5.46376301,14.0164973 Z" id="Path"></path>
                    <path d="M15.6538843,0 L15.6190462,0 L14.4113282,0 C14.7597084,1.7477074 15.7409793,3.26896767 17.1112748,4.30249564 C16.2112926,3.11219657 15.6654969,1.62577433 15.6538843,0 L15.6538843,0 Z" id="Path"></path>
                    <path d="M22.7608406,7.11276269 C22.30214,7.11276269 21.8608584,7.066312 21.4253831,6.98502328 L21.4253831,10.3352797 C19.8460595,10.3352797 18.3131866,10.0275438 16.873215,9.4120721 C15.9442011,9.01724119 15.0790569,8.51208988 14.2835888,7.90242451 L14.3068141,18.2318978 C14.2952014,20.5544326 13.3778002,22.7318089 11.7171878,24.3750023 C10.3643114,25.7104598 8.65144197,26.5639913 6.79341416,26.8368891 C6.3579389,26.9007588 5.91085095,26.9355968 5.46376301,26.9355968 C3.4779958,26.9355968 1.58512997,26.2910934 0.0464506951,25.1007944 C0.220640802,25.3098225 0.406443582,25.5130443 0.609665374,25.7104598 C2.2818904,27.3594594 4.49991109,28.2710543 6.86309021,28.2710543 C7.31017815,28.2710543 7.75726609,28.2362163 8.19274135,28.1723466 C10.0507692,27.8994488 11.7636385,27.0459172 13.116515,25.7104598 C14.7771274,24.0672664 15.6945286,21.8898901 15.7061413,19.5673553 L15.6190462,9.23788199 C16.4087081,9.84754737 17.2738523,10.358505 18.2086725,10.7475296 C19.6544504,11.357195 21.1873233,11.6707372 22.7608406,11.6707372" id="Path"></path>
                </g>
                <path d="M4.01798513,14.6958387 C5.67279114,13.0526453 7.87339282,12.1410504 10.2191529,12.1236314 L10.2191529,10.8868817 C9.78367766,10.823012 9.33658972,10.7881739 8.88950178,10.7881739 C6.52051633,10.7881739 4.2966893,11.6997688 2.62446427,13.3603812 C0.981270935,14.9919619 0.0406443582,17.2215952 0.0464239718,19.5383236 C0.0464239718,21.8724711 0.969658261,24.0614601 2.63607695,25.7162661 C2.90316845,25.9775512 3.17606628,26.2214174 3.46638312,26.4420582 C2.15415099,24.8801536 1.43997155,22.9292244 1.43416521,20.8737811 C1.43997155,18.5570527 2.37479179,16.3274193 4.01798513,14.6958387 Z" id="Path" fill="#08FFF9"></path>
                <path d="M24.8511219,8.32048076 L24.8511219,7.07792467 L24.8395092,7.07792467 C23.2253476,7.07792467 21.7389253,6.54374168 20.5428199,5.63795312 C21.5821542,7.00824863 23.1034145,7.98371323 24.8511219,8.32048076 Z" id="Path" fill="#08FFF9"></path>
                <path d="M10.0449628,25.0369247 C10.5965648,25.0659564 11.1249415,24.990474 11.6126738,24.8337029 C13.2965115,24.2821009 14.5100359,22.7143899 14.5100359,20.8679748 L14.5158422,13.9584339 L14.5158422,1.33545748 L17.8370669,1.33545748 C17.7499719,0.899982218 17.7035212,0.458700614 17.6977148,-1.6502602e-15 L13.1223214,-1.6502602e-15 L13.1223214,12.6171701 L13.116515,19.526711 C13.116515,21.3731261 11.9029906,22.9408371 10.2191529,23.4924391 C9.73142063,23.6550165 9.20304397,23.7304989 8.65144197,23.6956609 C7.9488752,23.6550165 7.29275914,23.4459884 6.72373812,23.1092208 C7.43791756,24.2124248 8.6572483,24.9614423 10.0449628,25.0369247 L10.0449628,25.0369247 Z" id="Path" fill="#08FFF9"></path>
                <path d="M10.2191529,28.1723466 C12.0771807,27.8994488 13.7900501,27.0459172 15.1429266,25.7104598 C16.803539,24.0672664 17.7209402,21.8898901 17.7325529,19.5673553 L17.7093275,9.23788199 C18.4989893,9.84754737 19.3641335,10.358505 20.2989538,10.7475296 C21.7447317,11.357195 23.2776046,11.6707372 24.8511219,11.6707372 L24.8511219,8.32048076 C23.1034145,7.98371323 21.5821542,7.00824863 20.5428199,5.63795312 C19.1725244,4.60442515 18.1854471,3.08316489 17.8428733,1.33545748 L14.5158422,1.33545748 L14.5158422,13.9526275 L14.5100359,20.8621684 C14.5100359,22.7085836 13.2965115,24.2762945 11.6126738,24.8278965 C11.1249415,24.990474 10.5965648,25.0659564 10.0449628,25.0311183 C8.65144197,24.955636 7.43791756,24.2066185 6.72373812,23.1092208 C5.51021371,22.3892351 4.68571387,21.0828093 4.66248852,19.5847743 C4.6276505,17.2506269 6.532129,15.3461484 8.88950178,15.3461484 C9.35400873,15.3461484 9.80109667,15.4216308 10.2191529,15.5551765 L10.2191529,12.1178251 C7.87339282,12.1352441 5.67279114,13.046839 4.01798513,14.6900323 C2.37479179,16.321613 1.43416521,18.5512464 1.43994483,20.8621684 C1.43994483,22.9176117 2.15415099,24.8685409 3.47218946,26.4304455 C5.01667507,27.6207446 6.90373456,28.265248 8.88950178,28.265248 C9.33658972,28.2710543 9.78367766,28.2362163 10.2191529,28.1723466 L10.2191529,28.1723466 Z" id="Path" fill="#FFFFFF"></path>
            </g>
        </g>
    </g>
</svg>