<?xml version="1.0" encoding="UTF-8"?>
<svg width="45px" height="45px" viewBox="0 0 45 45" version="1.1" xmlns="http://www.w3.org/2000/svg" xmlns:xlink="http://www.w3.org/1999/xlink">
    <title>social-footer-youtube</title>
    <g id="Page-1" stroke="none" stroke-width="1" fill="none" fill-rule="evenodd">
        <g id="social-footer-youtube">
            <circle id="Oval-Copy" fill="#FF0000" cx="22.5" cy="22.5" r="22.5"></circle>
            <path d="M36.402499,14.9424443 C36.068188,13.596391 35.0887075,12.5353703 33.8466015,12.1729068 C31.5772248,11.5 22.4997178,11.5 22.4997178,11.5 C22.4997178,11.5 13.422432,11.5 11.1530553,12.1472562 C9.93484445,12.50948 8.93146883,13.5966307 8.59715784,14.9424443 C8,17.4010591 8,22.5 8,22.5 C8,22.5 8,27.6245914 8.59715784,30.0575557 C8.93169013,31.4033692 9.91094929,32.4646297 11.1532765,32.8270932 C13.4463272,33.5 22.499939,33.5 22.499939,33.5 C22.499939,33.5 31.5772248,33.5 33.8466015,32.8527438 C35.0889288,32.49052 36.068188,31.4292595 36.4027202,30.0834459 C37,27.6245914 37,22.5258902 37,22.5258902 C37,22.5258902 37.0237732,17.4010591 36.402499,14.9424443 Z" id="Path" fill="#FFFFFF" fill-rule="nonzero"></path>
            <polygon id="Path" fill="#FF0000" fill-rule="nonzero" points="18.6701003 28 28.2193879 22.5 18.6701003 17"></polygon>
        </g>
    </g>
</svg>